<?xml version="1.0" standalone="no"?>
<!DOCTYPE svg PUBLIC "-//W3C//DTD SVG 20010904//EN"
 "http://www.w3.org/TR/2001/REC-SVG-20010904/DTD/svg10.dtd">
<svg version="1.0" xmlns="http://www.w3.org/2000/svg"
 width="512.000000pt" height="512.000000pt" viewBox="0 0 512.000000 512.000000"
 preserveAspectRatio="xMidYMid meet">
<metadata>
Created by potrace 1.14, written by Peter Selinger 2001-2017
</metadata>
<g transform="translate(0.000000,512.000000) scale(0.100000,-0.100000)"
fill="#000000" stroke="none">
<path d="M1435 4499 c-340 -47 -619 -176 -831 -387 -85 -84 -158 -175 -203
-255 -12 -20 -29 -52 -40 -70 -48 -85 -120 -304 -137 -417 -13 -92 -14 -107
-17 -225 -5 -181 8 -295 54 -472 29 -114 80 -256 118 -331 20 -39 21 -55 21
-529 1 -533 4 -564 60 -690 100 -221 284 -356 541 -398 24 -3 39 -13 46 -28
31 -67 104 -121 181 -133 36 -6 44 -3 67 22 19 20 25 37 23 58 -3 27 2 33 34
48 29 13 38 24 43 52 4 19 4 39 1 45 -4 5 5 22 19 37 14 15 25 35 25 45 0 66
-50 97 -131 82 l-50 -10 6 36 c14 86 15 157 3 180 -18 33 -61 46 -99 31 -38
-16 -45 -31 -53 -105 -10 -107 -45 -205 -71 -205 -42 1 -156 35 -208 62 -127
67 -241 218 -266 353 -6 28 -10 205 -11 394 l0 344 47 -64 c44 -59 266 -289
323 -334 25 -20 141 -117 190 -159 175 -149 524 -398 765 -546 151 -93 480
-260 570 -290 98 -33 162 -25 301 35 290 126 637 336 990 601 128 95 363 283
400 318 6 6 35 31 64 56 93 78 229 219 294 305 14 18 16 -11 15 -296 0 -348
-5 -393 -59 -499 -41 -81 -139 -179 -218 -219 -35 -17 -94 -39 -133 -48 -65
-14 -71 -14 -88 1 -22 20 -48 101 -56 171 -11 108 -20 123 -76 131 -24 3 -41
-1 -59 -15 -23 -19 -25 -26 -23 -99 0 -43 6 -95 11 -115 12 -41 8 -44 -67 -46
-53 -2 -97 -24 -106 -51 -9 -30 4 -79 25 -92 13 -9 17 -20 13 -39 -7 -35 20
-85 51 -93 15 -4 28 -17 35 -36 19 -56 75 -61 177 -14 52 24 114 83 114 109 0
13 15 18 83 30 15 3 56 16 92 29 170 62 309 192 385 359 56 125 59 161 60 650
l0 447 28 53 c84 156 161 386 187 557 4 25 9 56 11 70 9 56 11 300 3 370 -43
383 -189 665 -475 921 -49 44 -185 129 -269 168 -333 157 -690 189 -1008 90
-194 -60 -370 -170 -523 -327 -46 -47 -84 -81 -84 -75 0 14 -118 135 -178 183
-159 127 -345 214 -547 255 -90 19 -299 26 -390 14z"/>
</g>
</svg>
